HIERARCHY
ROOT Hips
{
 OFFSET 0.000000 0.000000 0.000000
 CHANNELS 6 Xposition Yposition Zposition Yrotation Xrotation Zrotation
 JOINT Chest
 {
  OFFSET 0.000000 9.857222 0.000240
  CHANNELS 3 Yrotation Xrotation Zrotation
  JOINT Chest2
  {
   OFFSET 0.000000 10.876940 -0.000436
   CHANNELS 3 Yrotation Xrotation Zrotation
   JOINT Chest3
   {
    OFFSET 0.000000 9.827798 0.000000
    CHANNELS 3 Yrotation Xrotation Zrotation
    JOINT Chest4
    {
     OFFSET 0.000000 9.827798 0.000000
     CHANNELS 3 Yrotation Xrotation Zrotation
     JOINT Neck
     {
      OFFSET 0.000000 13.831992 0.000000
      CHANNELS 3 Yrotation Xrotation Zrotation
      JOINT Head
      {
       OFFSET 0.000000 9.147643 -0.001036
       CHANNELS 3 Yrotation Xrotation Zrotation
       End Site
       {
        OFFSET 0.000000 17.515799 -0.000541
       }
      }
     }
     JOINT RightCollar
     {
      OFFSET -3.001579 7.717577 0.000000
      CHANNELS 3 Yrotation Xrotation Zrotation
      JOINT RightShoulder
      {
       OFFSET -14.002642 0.000000 0.000000
       CHANNELS 3 Yrotation Xrotation Zrotation
       JOINT RightElbow
       {
        OFFSET -30.053852 0.000000 0.000000
        CHANNELS 3 Yrotation Xrotation Zrotation
        JOINT RightWrist
        {
         OFFSET -24.564923 0.000000 -0.000000
         CHANNELS 3 Yrotation Xrotation Zrotation
         End Site
         {
          OFFSET -18.334355 0.000000 0.000000
         }
        }
       }
      }
     }
     JOINT LeftCollar
     {
      OFFSET 3.001579 7.717577 0.000000
      CHANNELS 3 Yrotation Xrotation Zrotation
      JOINT LeftShoulder
      {
       OFFSET 14.002642 0.000000 0.000000
       CHANNELS 3 Yrotation Xrotation Zrotation
       JOINT LeftElbow
       {
        OFFSET 30.053852 0.000000 0.000000
        CHANNELS 3 Yrotation Xrotation Zrotation
        JOINT LeftWrist
        {
         OFFSET 24.564923 0.000000 -0.000000
         CHANNELS 3 Yrotation Xrotation Zrotation
         End Site
         {
          OFFSET 18.334355 0.000000 0.000000
         }
        }
       }
      }
     }
    }
   }
  }
 }
 JOINT RightHip
 {
  OFFSET -8.003235 -0.001175 -0.000120
  CHANNELS 3 Yrotation Xrotation Zrotation
  JOINT RightKnee
  {
   OFFSET 0.000000 -41.759727 0.000113
   CHANNELS 3 Yrotation Xrotation Zrotation
   JOINT RightAnkle
   {
    OFFSET 0.000000 -40.728748 0.000159
    CHANNELS 3 Yrotation Xrotation Zrotation
    JOINT RightToe
    {
     OFFSET 0.000000 -6.515296 14.732841
     CHANNELS 3 Yrotation Xrotation Zrotation
     End Site
     {
      OFFSET 0.000000 -1.502839 6.412115
     }
    }
   }
  }
 }
 JOINT LeftHip
 {
  OFFSET 8.003235 -0.001175 -0.000120
  CHANNELS 3 Yrotation Xrotation Zrotation
  JOINT LeftKnee
  {
   OFFSET 0.000000 -41.759727 0.000113
   CHANNELS 3 Yrotation Xrotation Zrotation
   JOINT LeftAnkle
   {
    OFFSET 0.000000 -40.728748 0.000159
    CHANNELS 3 Yrotation Xrotation Zrotation
    JOINT LeftToe
    {
     OFFSET 0.000000 -6.515296 14.732841
     CHANNELS 3 Yrotation Xrotation Zrotation
     End Site
     {
      OFFSET 0.000000 -1.502839 6.412115
     }
    }
   }
  }
 }
}
MOTION
Frames: 17
Frame Time: 0.016667
0.000000 88.822259 0.000000 0.000000 -5.826342 0.000000 0.000000 11.116423 0.000000 0.000000 -5.290081 0.000000 0.000000 0.000000 0.000000 0.000000 0.000000 0.000000 0.000000 12.665069 0.000000 0.000000 0.575450 0.000000 0.000000 0.000000 0.000000 0.000000 0.000000 0.000000 2.337306 0.000000 0.000000 -2.337306 0.000000 0.000000 0.000000 0.000000 0.000000 0.000000 0.000000 0.000000 -2.337306 0.000000 0.000000 2.337306 0.000000 0.000000 0.000000 8.578828 0.000000 0.000000 1.905768 0.000000 0.000000 -4.658254 0.000000 0.000000 0.000000 0.000000 0.000000 8.578828 0.000000 0.000000 1.905768 0.000000 0.000000 -4.658254 0.000000 0.000000 0.000000 0.000000
-0.945736 90.512033 16.202720 -28.921862 -14.098373 -0.290664 -0.119559 5.615461 -0.994247 0.691708 2.140114 -0.138953 0.691708 2.140114 -0.138953 0.519207 1.604931 -0.106626 -6.992392 20.349373 2.114649 -13.354441 2.130278 5.923563 6.379490 1.923915 9.079828 44.199981 -0.268533 84.504017 27.818137 -3.572908 9.246778 -15.941934 5.363514 7.414856 -18.178314 7.028428 -10.082533 -17.622693 16.292067 -56.856451 -36.376540 -42.952109 -10.280487 9.863162 8.532642 3.554594 -3.383290 24.919707 -3.631798 -3.757590 -5.031642 4.215998 -0.555945 -7.517732 1.124233 -1.349439 0.326496 -0.607585 1.214779 14.815005 3.957850 -3.408272 3.520987 -3.957421 0.028460 -3.976076 -0.824205 1.139996 -0.316057 0.484129
-0.956857 90.512345 16.203063 -28.928221 -14.092949 -0.309135 -0.157204 5.625110 -0.944543 0.666886 2.169777 -0.112798 0.666886 2.169777 -0.112798 0.500505 1.627212 -0.086957 -6.929148 20.259287 2.064005 -13.232020 1.950321 5.823411 6.454491 1.741178 9.042529 43.509010 -0.135572 83.777926 29.033056 -5.387911 9.071373 -17.905811 5.178231 8.578806 -18.089801 6.925395 -10.056142 -16.871323 16.063948 -56.675417 -38.563771 -44.614123 -9.548088 9.841715 8.503514 4.603755 -3.577500 24.926856 -3.694438 -3.572033 -5.082660 4.201829 -0.530640 -7.468663 1.166333 -1.404768 0.302792 -0.636969 1.269948 14.825774 4.007156 -3.369165 3.496567 -3.968521 -0.056196 -3.961826 -0.839765 1.183870 -0.317874 0.503702
-0.962437 90.515282 16.183095 -29.061273 -14.039503 -0.340735 -0.073079 5.603337 -0.859563 0.645271 2.203027 -0.093012 0.645271 2.203027 -0.093012 0.484229 1.652174 -0.072078 -6.860268 20.161387 2.035681 -13.106442 1.758266 5.762732 6.468835 1.562830 8.987104 42.680186 0.017760 82.641927 30.304123 -6.259017 9.563607 -19.337275 4.966130 9.270269 -18.034270 6.816435 -9.992406 -16.215342 15.987734 -56.403811 -41.453997 -45.103537 -8.210582 9.857409 8.421582 5.310313 -3.565037 24.872306 -3.667343 -3.448454 -5.119118 4.169338 -0.536206 -7.421719 1.199027 -1.408080 0.286957 -0.644478 1.486040 14.791813 4.098028 -3.373559 3.440112 -3.948891 -0.049905 -3.933889 -0.848095 1.140427 -0.310385 0.488554
-0.961904 90.519886 16.155428 -29.149071 -14.015699 -0.368263 -0.036583 5.620576 -0.804415 0.627606 2.237499 -0.078539 0.627606 2.237499 -0.078539 0.470932 1.678045 -0.061196 -6.791479 20.069362 2.024727 -12.985597 1.579348 5.732751 6.461439 1.426973 8.944186 42.104273 0.262847 81.364976 31.867279 -6.472745 10.005959 -20.268211 5.107050 9.679535 -18.023627 6.720475 -9.923643 -15.627004 15.937349 -55.990318 -44.615403 -44.795961 -6.982241 9.967256 8.352330 5.728100 -3.555829 24.830591 -3.635730 -3.378775 -5.149210 4.138636 -0.522430 -7.358780 1.235197 -1.433134 0.267224 -0.660323 1.682175 14.797868 4.178761 -3.418831 3.352130 -3.934369 -0.083362 -3.892460 -0.869714 1.143655 -0.302780 0.496117
-0.990772 90.526023 16.131425 -29.144976 -14.081858 -0.428650 -0.084720 5.736381 -0.748222 0.614331 2.270785 -0.066811 0.614331 2.270785 -0.066811 0.460936 1.703024 -0.052385 -6.727655 19.980965 2.021955 -12.875858 1.408737 5.718519 6.433222 1.411806 8.910855 41.874180 0.468051 80.014910 33.845140 -6.254813 10.267853 -20.913272 5.579373 9.740903 -18.018609 6.709761 -9.851995 -15.331375 15.974488 -55.363375 -48.164800 -44.336209 -5.481351 10.109277 8.133607 5.633906 -3.666255 24.953755 -3.512191 -3.271280 -5.280237 3.996391 -0.656574 -7.261311 1.244036 -1.318853 0.236817 -0.614623 1.824256 14.898245 4.305129 -3.462325 3.251891 -3.931742 -0.102013 -3.854345 -0.897194 1.125395 -0.288704 0.494915
-0.968441 90.526327 16.125458 -29.180129 -14.136947 -0.348315 -0.078965 5.816566 -0.823609 0.598482 2.312921 -0.061087 0.598482 2.312921 -0.061087 0.449032 1.734633 -0.048075 -6.668162 19.891396 2.027988 -12.776694 1.237540 5.721545 6.390076 1.552879 8.891541 42.092111 0.602106 78.551739 36.177584 -5.857105 10.249880 -21.460727 6.362194 9.592563 -18.041140 6.858756 -9.798680 -15.296605 15.939635 -54.484557 -51.895793 -44.494507 -3.995300 10.200411 8.149099 5.570384 -3.970603 25.026514 -3.884989 -3.039468 -5.372327 4.146443 -0.314056 -7.204574 1.380934 -1.651330 0.228951 -0.767223 2.024526 14.989371 4.310036 -3.522945 3.137593 -3.954694 -0.270968 -3.759860 -0.941416 1.227532 -0.322209 0.543590
-0.975896 90.519028 16.030759 -29.432324 -13.986328 -0.444779 0.184778 5.680953 -0.667121 0.582621 2.351334 -0.061088 0.582621 2.351334 -0.061088 0.437140 1.763444 -0.048052 -6.613961 19.808885 2.039281 -12.688150 1.080615 5.734831 6.350997 1.845453 8.882643 42.948678 0.765198 77.011056 38.811215 -5.457640 9.755565 -21.741758 6.669638 9.139711 -18.097642 7.110656 -9.754222 -15.631307 15.845344 -53.478405 -55.833044 -44.818220 -2.154637 10.219542 8.019584 5.506452 -3.697023 24.778661 -3.640319 -3.021365 -5.332824 4.047961 -0.299938 -7.163528 1.407419 -1.635194 0.247981 -0.765602 2.601912 14.847878 4.622291 -3.697107 3.003293 -4.018253 -0.313185 -3.746378 -0.957490 1.230366 -0.249432 0.547151
-1.046789 90.519367 15.982571 -29.290505 -14.138302 -0.535626 0.056663 5.850456 -0.618304 0.570672 2.376975 -0.064785 0.570672 2.376975 -0.064785 0.428195 1.782672 -0.050803 -6.560858 19.747265 2.054493 -12.601068 0.962921 5.753254 6.327173 2.181641 8.863540 44.263221 0.921239 75.482504 41.665420 -5.610083 8.776497 -21.794579 7.001191 8.373573 -18.265456 7.466795 -9.756620 -16.348920 15.674434 -52.423968 -59.863161 -45.290564 0.174233 10.146215 8.048321 5.445482 -4.235118 25.027055 -3.455247 -2.657689 -5.562349 3.696613 -0.590610 -7.045740 1.364631 -1.313704 0.240033 -0.625304 2.878068 15.022875 4.817118 -3.947216 2.872421 -3.979562 -0.311366 -3.723917 -0.988982 1.162154 -0.200466 0.514990
-0.991333 90.510591 15.976025 -29.415774 -14.168741 -0.342444 0.166252 5.849617 -0.802607 0.564074 2.400796 -0.073698 0.564074 2.400796 -0.073698 0.423283 1.800531 -0.057482 -6.512031 19.723886 2.075188 -12.520297 0.917065 5.778805 6.315532 2.557573 8.853784 45.916746 1.039544 74.037673 44.688693 -5.900836 7.371193 -21.716283 6.881259 7.437437 -18.510398 8.004477 -9.790299 -17.162608 15.288220 -51.172047 -63.853786 -45.571592 2.657599 10.099942 8.131812 5.371136 -4.792611 25.060217 -4.114750 -2.197631 -5.702116 3.913793 -0.172311 -7.025202 1.505930 -1.672566 0.302923 -0.787393 3.279515 15.091838 4.604509 -4.175270 2.743553 -3.812378 -0.218752 -3.621855 -0.969736 1.037165 -0.224384 0.455309
-0.964717 90.509412 15.962262 -29.406113 -14.253568 -0.383933 0.170719 5.884515 -0.795989 0.557864 2.419697 -0.089715 0.557864 2.419697 -0.089715 0.418691 1.814692 -0.069486 -6.463925 19.736576 2.099871 -12.439094 0.938470 5.807990 6.286336 2.962549 8.863593 47.846763 1.118419 72.745677 47.882953 -6.468348 5.580689 -21.875279 6.515234 6.235791 -18.704273 8.432536 -9.786668 -18.036134 14.900022 -49.896586 -67.816110 -45.505361 5.331102 10.173850 8.157160 5.461816 -5.119542 25.198605 -4.078027 -1.980712 -5.879510 3.769788 -0.492267 -6.929884 1.422093 -1.323872 0.322745 -0.632894 3.544803 15.223157 4.540009 -4.339664 2.601207 -3.576540 0.007384 -3.591944 -0.926063 0.797778 -0.167688 0.346323
-0.918429 90.509070 15.966550 -29.372151 -14.329240 -0.381121 0.150832 5.925701 -0.836508 0.550543 2.427689 -0.108105 0.550543 2.427689 -0.108105 0.413275 1.820671 -0.083255 -6.422697 19.771876 2.118769 -12.366821 1.001707 5.826343 6.233768 3.297582 8.872461 49.910406 1.275954 71.631486 51.329149 -7.252155 3.414659 -22.421782 6.215070 4.860936 -18.888465 8.694829 -9.767417 -18.993371 14.592564 -48.687380 -71.855232 -45.049098 8.190407 10.342954 8.016251 5.946028 -5.653071 25.333011 -4.297928 -1.688440 -6.073647 3.779905 -0.581384 -6.823218 1.382059 -1.149542 0.328661 -0.558074 3.793466 15.348364 4.461805 -4.534336 2.450158 -3.392425 0.136072 -3.525957 -0.898268 0.657406 -0.142942 0.279835
-0.874734 90.507749 15.980798 -29.277047 -14.418713 -0.390026 0.071162 5.980136 -0.869470 0.536340 2.430614 -0.122696 0.536340 2.430614 -0.122696 0.402683 1.822854 -0.094142 -6.389271 19.819588 2.127383 -12.304653 1.087476 5.827058 6.188992 3.512240 8.846466 51.854018 1.492363 70.541036 54.985491 -7.913445 1.188360 -23.149877 5.892526 3.384629 -19.085026 8.935340 -9.781312 -19.699990 14.265934 -47.254475 -76.069543 -44.617176 10.889228 10.483534 7.985298 6.700758 -6.307710 25.505311 -4.581130 -1.356864 -6.297277 3.828096 -0.620184 -6.705898 1.353354 -1.020101 0.322838 -0.504801 3.963564 15.488474 4.433353 -4.700411 2.293215 -3.288530 0.166804 -3.450392 -0.877501 0.605657 -0.124351 0.251468
-0.852732 90.508696 15.999830 -29.114835 -14.529595 -0.423969 -0.080538 6.058193 -0.885545 0.518113 2.427769 -0.134274 0.518113 2.427769 -0.134274 0.389060 1.820715 -0.102749 -6.364088 19.874264 2.131679 -12.255657 1.186475 5.821689 6.202783 3.739728 8.793666 53.443572 1.559156 69.234687 58.859383 -8.391082 -0.676689 -23.951496 5.520988 1.550607 -19.237609 9.081922 -9.782651 -20.412159 14.178374 -45.784445 -80.977867 -44.076678 13.850565 10.724459 7.904669 7.448033 -6.935802 25.719494 -4.762688 -1.082725 -6.531631 3.813386 -0.776327 -6.575491 1.301234 -0.808112 0.299798 -0.415114 3.995219 15.655912 4.400291 -4.770009 2.151644 -3.168261 0.162613 -3.389721 -0.883605 0.567614 -0.104310 0.231073
-0.829183 90.509915 16.018722 -29.039955 -14.592114 -0.437771 -0.155389 6.092953 -0.901977 0.499160 2.420858 -0.144938 0.499160 2.420858 -0.144938 0.374889 1.815527 -0.110666 -6.345505 19.926889 2.137082 -12.219203 1.282511 5.820538 6.265078 3.902556 8.742386 54.874882 1.723279 67.705228 63.220981 -8.751399 -2.229712 -24.949141 5.086282 -0.900703 -19.362436 9.182924 -9.761282 -21.151690 14.212937 -44.315148 -86.395750 -43.292705 16.996598 10.832244 8.006568 7.853538 -7.437966 25.867091 -4.968861 -0.826093 -6.734827 3.855331 -0.883931 -6.468355 1.259121 -0.662423 0.286258 -0.354899 4.083280 15.781017 4.338251 -4.869489 2.013314 -3.017423 0.219230 -3.329616 -0.889169 0.490775 -0.091563 0.197616
-0.793366 90.512547 16.043496 -29.012264 -14.631536 -0.418996 -0.181921 6.110180 -0.938569 0.487310 2.418034 -0.154082 0.487310 2.418034 -0.154082 0.366038 1.813404 -0.117473 -6.341695 19.957899 2.146018 -12.212456 1.340541 5.832434 6.328433 4.042572 8.697019 56.331476 2.187157 65.807730 68.087077 -8.886940 -3.596908 -25.966269 4.310528 -3.649754 -19.432772 9.244464 -9.693661 -21.506358 13.905823 -42.532206 -91.602285 -42.221381 19.040811 10.777700 8.197010 8.211811 -7.760443 25.963947 -5.215250 -0.642513 -6.886635 3.969815 -0.869355 -6.382971 1.264957 -0.666936 0.271087 -0.360005 4.221170 15.881409 4.271194 -5.019404 1.879938 -2.893539 0.250823 -3.254527 -0.906787 0.466293 -0.101050 0.189691
-0.762806 90.516314 16.052287 -29.016219 -14.627953 -0.424041 -0.187676 6.084248 -0.928224 0.473031 2.418042 -0.154305 0.473031 2.418042 -0.154305 0.355332 1.813413 -0.117584 -6.341324 19.960812 2.139893 -12.209706 1.345153 5.820897 6.441270 4.209935 8.598755 57.659116 2.578647 63.775088 72.959765 -8.339041 -4.855955 -26.815325 3.355124 -6.122638 -19.464408 9.255359 -9.646863 -21.808799 13.486291 -40.473027 -96.644014 -40.349590 20.419426 10.724925 8.160895 8.463028 -7.865849 25.989517 -5.342149 -0.566044 -6.975950 4.078756 -0.867750 -6.311854 1.269698 -0.695816 0.250727 -0.371310 4.281681 15.923258 4.252704 -5.091439 1.771012 -2.834162 0.258253 -3.188174 -0.934867 0.491170 -0.112252 0.205570
